PathFileType	4	(X/Y/Z)	 2.6Hz3min.trc
DataRate	CameraRate	NumFrames	NumMarkers	Units	OrigDataRate	OrigDataStartFrame	OrigNumFrames
200	200	9	39	m	200	751	1000
Frame#	Time	C7			LSH			RSH			MAN			RASI			LASI			HIPR			HIPL			RPSI			LPSI			COX			RTHI1			RTHI2			RTHI3			RTHI4			RLKN			RMKN			RSHA1			RSHA2			RSHA3			RSHA4			RHEEL			RMET5			RMET1			RTOE			LTHI1			LTHI2			LTHI3			LTHI4			LLKN			LMKN			LSHA1			LSHA2			LSHA3			LSHA4			LHEEL			LMET5			LMET1			LTOE			
		X1	Y1	Z1	X2	Y2	Z2	X3	Y3	Z3	X4	Y4	Z4	X5	Y5	Z5	X6	Y6	Z6	X7	Y7	Z7	X8	Y8	Z8	X9	Y9	Z9	X10	Y10	Z10	X11	Y11	Z11	X12	Y12	Z12	X13	Y13	Z13	X14	Y14	Z14	X15	Y15	Z15	X16	Y16	Z16	X17	Y17	Z17	X18	Y18	Z18	X19	Y19	Z19	X20	Y20	Z20	X21	Y21	Z21	X22	Y22	Z22	X23	Y23	Z23	X24	Y24	Z24	X25	Y25	Z25	X26	Y26	Z26	X27	Y27	Z27	X28	Y28	Z28	X29	Y29	Z29	X30	Y30	Z30	X31	Y31	Z31	X32	Y32	Z32	X33	Y33	Z33	X34	Y34	Z34	X35	Y35	Z35	X36	Y36	Z36	X37	Y37	Z37	X38	Y38	Z38	X39	Y39	Z39	
751	3.7550	-0.343790	1.556650	-0.519513	-0.289670	1.552594	-0.696246	-0.305128	1.550928	-0.337731	-0.198538	1.502777	-0.523247	-0.206271	1.041034	-0.403898	-0.211724	1.042805	-0.642350	-0.281391	1.116199	-0.354927	-0.281212	1.111733	-0.685137	-0.379933	1.106077	-0.473594	-0.382477	1.110147	-0.562243	-0.380010	1.111095	-0.515075	-0.300148	0.854830	-0.330951	-0.291201	0.795889	-0.326795	-0.226659	0.803937	-0.321705	-0.228387	0.865614	-0.327301	-0.283958	0.528559	-0.355473	-0.261930	0.517319	-0.474797	-0.358242	0.411118	-0.335391	-0.369788	0.371597	-0.345038	-0.309850	0.359504	-0.342690	-0.302302	0.399647	-0.336330	-0.430033	0.146613	-0.426581	-0.297837	0.046309	-0.361629	-0.243257	0.053848	-0.424976	-0.217309	0.043396	-0.417004	-0.315201	0.861114	-0.716347	-0.299683	0.802249	-0.727058	-0.236348	0.814045	-0.733001	-0.242962	0.873196	-0.723704	-0.299890	0.534683	-0.708073	-0.263770	0.525773	-0.589570	-0.375349	0.404586	-0.721830	-0.387384	0.366565	-0.714667	-0.326443	0.352832	-0.725439	-0.322979	0.396264	-0.731785	-0.450460	0.140492	-0.643592	-0.314658	0.058319	-0.728953	-0.255737	0.066627	-0.672540	-0.233099	0.053332	-0.683711	
752	3.7600	-0.344034	1.558487	-0.519417	-0.289777	1.554790	-0.695955	-0.305356	1.552898	-0.337719	-0.197995	1.504832	-0.522873	-0.206544	1.043026	-0.403874	-0.211819	1.044818	-0.642447	-0.281613	1.118677	-0.355236	-0.281051	1.114314	-0.685167	-0.380135	1.108849	-0.473977	-0.382624	1.112924	-0.562548	-0.380106	1.113862	-0.515410	-0.300847	0.856828	-0.331163	-0.291963	0.797846	-0.326991	-0.227382	0.805922	-0.321659	-0.229085	0.867595	-0.327270	-0.284310	0.530264	-0.355524	-0.262330	0.518964	-0.474895	-0.358270	0.412659	-0.335359	-0.369577	0.372870	-0.344199	-0.309818	0.361287	-0.342552	-0.302278	0.401450	-0.336294	-0.429507	0.148076	-0.426624	-0.297791	0.047848	-0.360828	-0.243046	0.055255	-0.423671	-0.217232	0.045049	-0.415278	-0.315887	0.863183	-0.716084	-0.300469	0.804288	-0.726746	-0.237167	0.816011	-0.732959	-0.243628	0.875188	-0.723563	-0.300025	0.536437	-0.707999	-0.264180	0.527572	-0.589451	-0.375576	0.406370	-0.721630	-0.387594	0.368333	-0.714528	-0.326688	0.354572	-0.725418	-0.323223	0.398058	-0.731697	-0.450237	0.141574	-0.643524	-0.314395	0.061028	-0.730382	-0.255237	0.069171	-0.674290	-0.232577	0.056019	-0.685674	
753	3.7650	-0.344283	1.560085	-0.519329	-0.289955	1.556669	-0.695727	-0.305577	1.554518	-0.337684	-0.197086	1.506693	-0.522344	-0.206825	1.044756	-0.403881	-0.211965	1.046552	-0.642516	-0.281808	1.120850	-0.355522	-0.281015	1.116345	-0.685241	-0.380372	1.111242	-0.474344	-0.382785	1.115445	-0.562878	-0.380301	1.116422	-0.515752	-0.301438	0.858461	-0.331316	-0.292488	0.799589	-0.327113	-0.227972	0.807657	-0.321671	-0.229577	0.868863	-0.327101	-0.284471	0.531732	-0.355583	-0.262645	0.520393	-0.474991	-0.358261	0.413969	-0.335335	-0.369431	0.374378	-0.344751	-0.309797	0.362818	-0.342487	-0.302248	0.402962	-0.336310	-0.429225	0.149312	-0.426842	-0.297799	0.049533	-0.359842	-0.242777	0.056780	-0.422276	-0.217034	0.046825	-0.413531	-0.316414	0.864922	-0.715966	-0.301035	0.805952	-0.726542	-0.237700	0.817649	-0.732797	-0.244168	0.876849	-0.723505	-0.300189	0.537970	-0.707989	-0.264410	0.529093	-0.589475	-0.375960	0.407995	-0.721319	-0.387945	0.369953	-0.714264	-0.327124	0.356159	-0.725428	-0.323648	0.399682	-0.731623	-0.450138	0.142501	-0.643473	-0.314160	0.063381	-0.731416	-0.254855	0.071514	-0.675580	-0.232140	0.058542	-0.687121	
754	3.7700	-0.344539	1.561450	-0.519209	-0.290094	1.558286	-0.695529	-0.305787	1.555796	-0.337590	-0.196700	1.508221	-0.522042	-0.207152	1.046239	-0.403851	-0.212126	1.047979	-0.642509	-0.282081	1.122589	-0.355788	-0.281086	1.117958	-0.685303	-0.380654	1.113419	-0.474679	-0.382997	1.117526	-0.563226	-0.380560	1.118568	-0.516065	-0.301838	0.859791	-0.331423	-0.292852	0.800901	-0.327094	-0.228387	0.808967	-0.321774	-0.230074	0.870710	-0.327396	-0.284579	0.532961	-0.355657	-0.262896	0.521468	-0.475070	-0.358233	0.415061	-0.335360	-0.369365	0.375246	-0.344002	-0.309804	0.364102	-0.342485	-0.302230	0.404188	-0.336363	-0.429146	0.150310	-0.427169	-0.297838	0.051386	-0.358758	-0.242436	0.058440	-0.420842	-0.216738	0.048651	-0.411774	-0.316806	0.866190	-0.715943	-0.301442	0.807265	-0.726488	-0.238092	0.818894	-0.732668	-0.244552	0.878101	-0.723430	-0.300478	0.539317	-0.707986	-0.264428	0.530358	-0.589552	-0.376501	0.409454	-0.720938	-0.388449	0.371412	-0.713907	-0.327734	0.357611	-0.725467	-0.324249	0.401141	-0.731577	-0.450170	0.143284	-0.643446	-0.313927	0.065412	-0.732050	-0.254545	0.073721	-0.676337	-0.231758	0.060873	-0.687955	
755	3.7750	-0.344775	1.562504	-0.519094	-0.290321	1.559621	-0.695382	-0.306005	1.556830	-0.337447	-0.196311	1.509515	-0.521733	-0.207503	1.047387	-0.403818	-0.212294	1.049200	-0.642499	-0.282371	1.123987	-0.356002	-0.281268	1.119054	-0.685367	-0.380978	1.115168	-0.475039	-0.383251	1.119243	-0.563525	-0.380811	1.120357	-0.516351	-0.302083	0.860935	-0.331382	-0.293095	0.802431	-0.327099	-0.228522	0.810080	-0.321896	-0.230369	0.871744	-0.327602	-0.284433	0.533814	-0.355692	-0.263061	0.522438	-0.475186	-0.358219	0.416001	-0.335402	-0.369334	0.376085	-0.344005	-0.309853	0.365149	-0.342535	-0.302226	0.405177	-0.336460	-0.429241	0.151059	-0.427557	-0.297896	0.053331	-0.357654	-0.242094	0.060135	-0.419417	-0.216415	0.050496	-0.410085	-0.316934	0.867268	-0.716027	-0.301512	0.808298	-0.726500	-0.238160	0.819920	-0.732533	-0.244658	0.879016	-0.723326	-0.300864	0.540562	-0.708024	-0.264385	0.531460	-0.589710	-0.377187	0.410737	-0.720515	-0.389084	0.372689	-0.713497	-0.328504	0.358905	-0.725520	-0.325003	0.402429	-0.731551	-0.450315	0.143900	-0.643417	-0.313670	0.067129	-0.732292	-0.254303	0.075737	-0.676564	-0.231423	0.063037	-0.688203	
756	3.7800	-0.344995	1.563415	-0.518981	-0.290318	1.560609	-0.695234	-0.306199	1.557581	-0.337223	-0.195943	1.510483	-0.521473	-0.207858	1.048307	-0.403815	-0.212536	1.049961	-0.642487	-0.282690	1.125009	-0.356184	-0.281407	1.119787	-0.685379	-0.381322	1.116570	-0.475274	-0.383521	1.120532	-0.563761	-0.381109	1.121772	-0.516638	-0.302169	0.861643	-0.331296	-0.293092	0.802805	-0.326986	-0.228605	0.810973	-0.322168	-0.230393	0.872628	-0.327812	-0.284284	0.534509	-0.355800	-0.263105	0.523108	-0.475265	-0.358227	0.416789	-0.335472	-0.369099	0.376857	-0.343681	-0.309955	0.365969	-0.342626	-0.302276	0.405922	-0.336581	-0.429479	0.151579	-0.427966	-0.297987	0.055183	-0.356581	-0.241795	0.061804	-0.418048	-0.216099	0.052268	-0.408482	-0.316872	0.867855	-0.716272	-0.301428	0.808941	-0.726639	-0.238046	0.820552	-0.732355	-0.244577	0.879833	-0.723234	-0.301349	0.541516	-0.708118	-0.264256	0.532357	-0.589887	-0.377976	0.411819	-0.720090	-0.389819	0.373772	-0.713071	-0.329376	0.360045	-0.725555	-0.325864	0.403532	-0.731537	-0.450572	0.144364	-0.643369	-0.313348	0.068554	-0.732145	-0.254129	0.077568	-0.676331	-0.231120	0.064999	-0.687918	
757	3.7850	-0.345169	1.564030	-0.518857	-0.290483	1.561288	-0.695187	-0.306361	1.558038	-0.336971	-0.194349	1.511400	-0.520614	-0.208194	1.048912	-0.403817	-0.212765	1.050569	-0.642417	-0.283045	1.125671	-0.356301	-0.281544	1.120161	-0.685347	-0.381695	1.117598	-0.475527	-0.383765	1.121498	-0.564079	-0.381389	1.122740	-0.516801	-0.302075	0.862263	-0.331139	-0.292973	0.803388	-0.326849	-0.228398	0.811533	-0.322409	-0.230321	0.873222	-0.328129	-0.284067	0.535016	-0.355905	-0.263064	0.523646	-0.475353	-0.358299	0.417439	-0.335579	-0.369191	0.377555	-0.343911	-0.310113	0.366573	-0.342746	-0.302370	0.406471	-0.336730	-0.429832	0.151884	-0.428353	-0.298102	0.056892	-0.355623	-0.241556	0.063342	-0.416808	-0.215837	0.053891	-0.407051	-0.316617	0.868313	-0.716593	-0.301074	0.809361	-0.726889	-0.237677	0.820948	-0.732185	-0.244281	0.880209	-0.723093	-0.302083	0.542352	-0.708075	-0.264155	0.533000	-0.590069	-0.378820	0.412686	-0.719688	-0.390608	0.374636	-0.712657	-0.330323	0.360975	-0.725591	-0.326783	0.404417	-0.731534	-0.450929	0.144671	-0.643312	-0.312976	0.069712	-0.731670	-0.254040	0.079164	-0.675718	-0.230869	0.066727	-0.687186	
758	3.7900	-0.345331	1.564424	-0.518717	-0.290548	1.561698	-0.695208	-0.306482	1.558197	-0.336662	-0.194534	1.511837	-0.520548	-0.208528	1.049286	-0.403835	-0.212946	1.050900	-0.642286	-0.283467	1.126014	-0.356383	-0.281764	1.120167	-0.685333	-0.382055	1.118157	-0.475692	-0.384059	1.122086	-0.564231	-0.381715	1.123299	-0.516956	-0.301888	0.862567	-0.330930	-0.292680	0.803677	-0.326688	-0.228095	0.811961	-0.322728	-0.230106	0.873516	-0.328456	-0.283794	0.535233	-0.355971	-0.262938	0.524010	-0.475426	-0.358432	0.417949	-0.335757	-0.369816	0.377935	-0.344517	-0.310328	0.366972	-0.342887	-0.302504	0.406835	-0.336890	-0.430288	0.152006	-0.428698	-0.298266	0.058371	-0.354844	-0.241420	0.064718	-0.415792	-0.215679	0.055308	-0.405897	-0.316239	0.868522	-0.716999	-0.300586	0.809589	-0.727143	-0.237183	0.821225	-0.731929	-0.243846	0.880388	-0.722904	-0.302680	0.542890	-0.708084	-0.264124	0.533500	-0.590223	-0.379657	0.413313	-0.719332	-0.391411	0.375267	-0.712272	-0.331260	0.361652	-0.725585	-0.327689	0.405049	-0.731522	-0.451373	0.144842	-0.643242	-0.312635	0.070507	-0.730925	-0.254049	0.080461	-0.674799	-0.230697	0.068114	-0.686090	
759	3.7950	-0.345454	1.564624	-0.518577	-0.290581	1.561791	-0.695239	-0.306590	1.558104	-0.336318	-0.194735	1.512046	-0.520469	-0.208879	1.049400	-0.403892	-0.213127	1.050978	-0.642184	-0.283916	1.125989	-0.356421	-0.281999	1.119851	-0.685316	-0.382140	1.118075	-0.475628	-0.384375	1.122200	-0.564323	-0.381873	1.123386	-0.516973	-0.301486	0.862552	-0.330671	-0.292188	0.803880	-0.326114	-0.227741	0.812168	-0.323265	-0.229742	0.873621	-0.328856	-0.283511	0.535282	-0.356057	-0.262796	0.524192	-0.475503	-0.358608	0.418364	-0.335952	-0.370212	0.378499	-0.345584	-0.310598	0.367171	-0.343039	-0.302691	0.407012	-0.337051	-0.430845	0.151959	-0.429002	-0.298507	0.059545	-0.354255	-0.241426	0.065844	-0.415069	-0.215646	0.056493	-0.405075	-0.315768	0.868449	-0.717471	-0.299991	0.809521	-0.727369	-0.236507	0.821250	-0.731653	-0.243351	0.880395	-0.722738	-0.303153	0.543153	-0.708109	-0.264124	0.533786	-0.590363	-0.380427	0.413681	-0.719029	-0.392162	0.375639	-0.711935	-0.332145	0.362039	-0.725535	-0.328517	0.405402	-0.731489	-0.451891	0.144913	-0.643165	-0.312420	0.070865	-0.729955	-0.254158	0.081371	-0.673642	-0.230659	0.069061	-0.684736	
